<svg width="49" height="31" viewBox="0 0 49 31" fill="none" xmlns="http://www.w3.org/2000/svg">
<path d="M6.47115 11.0233C5.39772 11.0233 4.42751 10.7859 3.56051 10.3111C2.70383 9.83632 2.02778 9.18091 1.53235 8.34488C1.04724 7.49852 0.804688 6.55411 0.804688 5.51164C0.804688 4.46918 1.04724 3.52993 1.53235 2.69389C2.02778 1.84754 2.70899 1.18696 3.57599 0.712179C4.44299 0.237393 5.41321 0 6.48663 0C7.29171 0 8.03485 0.134179 8.71606 0.402536C9.39728 0.670893 9.97528 1.06311 10.4501 1.57918L9.7224 2.30684C8.87605 1.45016 7.80778 1.02182 6.5176 1.02182C5.66092 1.02182 4.88165 1.21793 4.1798 1.61014C3.47794 2.00236 2.92574 2.53907 2.52321 3.22029C2.13099 3.9015 1.93488 4.66529 1.93488 5.51164C1.93488 6.358 2.13099 7.12179 2.52321 7.803C2.92574 8.48421 3.47794 9.02093 4.1798 9.41314C4.88165 9.80536 5.66092 10.0015 6.5176 10.0015C7.8181 10.0015 8.88637 9.56796 9.7224 8.70096L10.4501 9.42863C9.97528 9.9447 9.39212 10.3421 8.70058 10.6208C8.01937 10.8891 7.27622 11.0233 6.47115 11.0233Z" fill="white"/>
<path d="M12.8924 0.0928926H17.3048C18.4505 0.0928926 19.462 0.325125 20.3393 0.789589C21.2166 1.24373 21.8978 1.88366 22.3829 2.70938C22.868 3.52477 23.1106 4.45886 23.1106 5.51164C23.1106 6.56443 22.868 7.50368 22.3829 8.32939C21.8978 9.14479 21.2166 9.78471 20.3393 10.2492C19.462 10.7033 18.4505 10.9304 17.3048 10.9304H12.8924V0.0928926ZM17.2429 9.93954C18.1924 9.93954 19.0233 9.75375 19.7355 9.38218C20.4477 9.00029 20.9999 8.47905 21.3921 7.81848C21.7843 7.14759 21.9804 6.37864 21.9804 5.51164C21.9804 4.64464 21.7843 3.88086 21.3921 3.22029C20.9999 2.54939 20.4477 2.02816 19.7355 1.65659C19.0233 1.2747 18.1924 1.08375 17.2429 1.08375H14.038V9.93954H17.2429Z" fill="white"/>
<path d="M30.4208 11.0233C29.3474 11.0233 28.372 10.7859 27.4947 10.3111C26.6277 9.826 25.9465 9.16543 25.451 8.32939C24.9659 7.49336 24.7234 6.55411 24.7234 5.51164C24.7234 4.46918 24.9659 3.52993 25.451 2.69389C25.9465 1.85786 26.6277 1.20245 27.4947 0.727661C28.372 0.242554 29.3474 0 30.4208 0C31.4942 0 32.4593 0.237393 33.316 0.712179C34.183 1.18696 34.8642 1.84754 35.3596 2.69389C35.8551 3.52993 36.1028 4.46918 36.1028 5.51164C36.1028 6.55411 35.8551 7.49852 35.3596 8.34488C34.8642 9.18091 34.183 9.83632 33.316 10.3111C32.4593 10.7859 31.4942 11.0233 30.4208 11.0233ZM30.4208 10.0015C31.2775 10.0015 32.0516 9.81052 32.7431 9.42863C33.4347 9.03641 33.9765 8.4997 34.3688 7.81848C34.761 7.12695 34.9571 6.358 34.9571 5.51164C34.9571 4.66529 34.761 3.9015 34.3688 3.22029C33.9765 2.52875 33.4347 1.99204 32.7431 1.61014C32.0516 1.21793 31.2775 1.02182 30.4208 1.02182C29.5641 1.02182 28.7849 1.21793 28.083 1.61014C27.3915 1.99204 26.8444 2.52875 26.4419 3.22029C26.0497 3.9015 25.8536 4.66529 25.8536 5.51164C25.8536 6.358 26.0497 7.12695 26.4419 7.81848C26.8444 8.4997 27.3915 9.03641 28.083 9.42863C28.7849 9.81052 29.5641 10.0015 30.4208 10.0015Z" fill="white"/>
<path d="M9.39728 24.5116H10.4965V28.6454C9.99076 29.0892 9.39212 29.4298 8.70058 29.6672C8.00905 29.9046 7.28138 30.0233 6.5176 30.0233C5.43385 30.0233 4.45847 29.7859 3.59147 29.3111C2.72447 28.8363 2.04326 28.1809 1.54783 27.3449C1.0524 26.4985 0.804688 25.5541 0.804688 24.5116C0.804688 23.4692 1.0524 22.5299 1.54783 21.6939C2.04326 20.8475 2.72447 20.187 3.59147 19.7122C4.45847 19.2374 5.43901 19 6.53308 19C7.3588 19 8.11742 19.1342 8.80896 19.4025C9.50049 19.6606 10.0837 20.0476 10.5584 20.5637L9.84626 21.2914C8.98958 20.445 7.90067 20.0218 6.57953 20.0218C5.70221 20.0218 4.90746 20.2179 4.19528 20.6101C3.49342 20.992 2.94122 21.5287 2.53869 22.2203C2.13615 22.9015 1.93488 23.6653 1.93488 24.5116C1.93488 25.358 2.13615 26.1218 2.53869 26.803C2.94122 27.4842 3.49342 28.0209 4.19528 28.4131C4.89713 28.8054 5.68672 29.0015 6.56405 29.0015C7.67876 29.0015 8.62317 28.7228 9.39728 28.1654V24.5116Z" fill="white"/>
<path d="M13.5068 18.4426H14.6061V29.9304H13.5068V18.4426Z" fill="white"/>
<path d="M20.9933 30.0078C20.2089 30.0078 19.5018 29.8323 18.8722 29.4814C18.2426 29.1202 17.7472 28.6247 17.3859 27.9951C17.0247 27.3655 16.8441 26.6533 16.8441 25.8586C16.8441 25.0638 17.0247 24.3517 17.3859 23.7221C17.7472 23.0924 18.2426 22.6022 18.8722 22.2512C19.5018 21.9003 20.2089 21.7249 20.9933 21.7249C21.7777 21.7249 22.4847 21.9003 23.1143 22.2512C23.7439 22.6022 24.2342 23.0924 24.5851 23.7221C24.9464 24.3517 25.127 25.0638 25.127 25.8586C25.127 26.6533 24.9464 27.3655 24.5851 27.9951C24.2342 28.6247 23.7439 29.1202 23.1143 29.4814C22.4847 29.8323 21.7777 30.0078 20.9933 30.0078ZM20.9933 29.0324C21.5713 29.0324 22.0874 28.9034 22.5415 28.6454C23.006 28.377 23.3672 28.0003 23.6252 27.5152C23.8833 27.0301 24.0123 26.4779 24.0123 25.8586C24.0123 25.2393 23.8833 24.6871 23.6252 24.202C23.3672 23.7169 23.006 23.3453 22.5415 23.0873C22.0874 22.8189 21.5713 22.6847 20.9933 22.6847C20.4153 22.6847 19.8941 22.8189 19.4296 23.0873C18.9754 23.3453 18.6142 23.7169 18.3458 24.202C18.0878 24.6871 17.9588 25.2393 17.9588 25.8586C17.9588 26.4779 18.0878 27.0301 18.3458 27.5152C18.6142 28.0003 18.9754 28.377 19.4296 28.6454C19.8941 28.9034 20.4153 29.0324 20.9933 29.0324Z" fill="white"/>
<path d="M31.5669 21.7249C32.3306 21.7249 33.0222 21.9003 33.6415 22.2512C34.2608 22.5919 34.7459 23.077 35.0968 23.7066C35.4477 24.3362 35.6232 25.0535 35.6232 25.8586C35.6232 26.6637 35.4477 27.381 35.0968 28.0106C34.7459 28.6402 34.2608 29.1305 33.6415 29.4814C33.0222 29.8323 32.3306 30.0078 31.5669 30.0078C30.8856 30.0078 30.2715 29.8633 29.7245 29.5743C29.1878 29.2853 28.7543 28.8673 28.424 28.3203V29.9304H27.3712V18.4426H28.4704V23.335C28.811 22.8086 29.2445 22.4112 29.7709 22.1429C30.3076 21.8642 30.9063 21.7249 31.5669 21.7249ZM31.4894 29.0324C32.0571 29.0324 32.5732 28.9034 33.0377 28.6454C33.5021 28.377 33.8634 28.0003 34.1214 27.5152C34.3898 27.0301 34.5239 26.4779 34.5239 25.8586C34.5239 25.2393 34.3898 24.6871 34.1214 24.202C33.8634 23.7169 33.5021 23.3453 33.0377 23.0873C32.5732 22.8189 32.0571 22.6847 31.4894 22.6847C30.9114 22.6847 30.3902 22.8189 29.9258 23.0873C29.4716 23.3453 29.1104 23.7169 28.842 24.202C28.584 24.6871 28.4549 25.2393 28.4549 25.8586C28.4549 26.4779 28.584 27.0301 28.842 27.5152C29.1104 28.0003 29.4716 28.377 29.9258 28.6454C30.3902 28.9034 30.9114 29.0324 31.4894 29.0324Z" fill="white"/>
<path d="M40.6673 21.7249C41.7304 21.7249 42.5458 21.9932 43.1135 22.5299C43.6812 23.0563 43.965 23.8407 43.965 24.8832V29.9304H42.9122V28.6609C42.6645 29.084 42.2981 29.4143 41.813 29.6517C41.3382 29.8891 40.7705 30.0078 40.11 30.0078C39.2017 30.0078 38.4792 29.7911 37.9425 29.3576C37.4058 28.9241 37.1374 28.3512 37.1374 27.639C37.1374 26.9475 37.3851 26.3901 37.8806 25.967C38.3863 25.5438 39.1862 25.3322 40.2803 25.3322H42.8658V24.8368C42.8658 24.1349 42.6697 23.6034 42.2775 23.2421C41.8853 22.8705 41.3124 22.6847 40.559 22.6847C40.0429 22.6847 39.5475 22.7725 39.0727 22.9479C38.5979 23.1131 38.1902 23.3453 37.8496 23.6446L37.3542 22.8241C37.767 22.4732 38.2624 22.2048 38.8404 22.019C39.4184 21.8229 40.0274 21.7249 40.6673 21.7249ZM40.2803 29.1408C40.8996 29.1408 41.4311 29.0015 41.8749 28.7228C42.3188 28.4338 42.6491 28.0209 42.8658 27.4842V26.1528H40.3112C38.9179 26.1528 38.2212 26.6379 38.2212 27.6081C38.2212 28.0829 38.4018 28.4596 38.763 28.7383C39.1243 29.0066 39.63 29.1408 40.2803 29.1408Z" fill="white"/>
<path d="M46.9507 18.4426H48.0499V29.9304H46.9507V18.4426Z" fill="white"/>
</svg>
