<svg width="2263" height="345" viewBox="0 0 2263 345" fill="none" xmlns="http://www.w3.org/2000/svg">
<path fill-rule="evenodd" clip-rule="evenodd" d="M2263 0H0V344.826H2263V0ZM729.913 339.565V274.522H607V193.217L758.609 0H820.783V193.217H862.87V274.522H820.783V339.565H729.913ZM696.435 193.217H740.435V135.826L696.435 193.217ZM1082.24 344.826C1056.73 344.826 1034.41 339.565 1015.28 329.043C996.151 318.203 980.05 304.493 966.977 287.913C954.224 271.015 944.499 252.362 937.803 231.957C931.427 211.551 928.238 191.783 928.238 172.652C928.238 152.246 931.745 131.841 938.76 111.435C946.093 90.71 956.296 72.217 969.369 55.957C982.76 39.377 998.861 25.986 1017.67 15.783C1036.8 5.57999 1058.33 0.477997 1082.24 0.477997C1107.43 0.477997 1129.59 6.05801 1148.72 17.217C1168.17 28.058 1184.27 41.928 1197.02 58.826C1210.09 75.725 1219.82 94.377 1226.19 114.783C1232.89 134.87 1236.24 154.159 1236.24 172.652C1236.24 193.377 1232.57 214.101 1225.24 234.826C1218.22 255.232 1208.02 273.565 1194.63 289.826C1181.56 306.087 1165.46 319.319 1146.33 329.522C1127.51 339.725 1106.15 344.826 1082.24 344.826ZM1022.93 172.652C1022.93 183.174 1024.05 193.696 1026.28 204.217C1028.51 214.739 1032.02 224.304 1036.8 232.913C1041.59 241.522 1047.64 248.536 1054.98 253.957C1062.63 259.377 1071.72 262.087 1082.24 262.087C1093.08 262.087 1102.33 259.217 1109.98 253.478C1117.63 247.739 1123.69 240.406 1128.15 231.478C1132.93 222.551 1136.28 212.986 1138.19 202.783C1140.43 192.261 1141.54 182.217 1141.54 172.652C1141.54 162.13 1140.43 151.609 1138.19 141.087C1135.96 130.565 1132.46 121 1127.67 112.391C1122.89 103.783 1116.67 96.768 1109.02 91.348C1101.69 85.928 1092.76 83.217 1082.24 83.217C1071.08 83.217 1061.67 86.087 1054.02 91.826C1046.69 97.565 1040.63 104.899 1035.85 113.826C1031.38 122.754 1028.04 132.478 1025.8 143C1023.89 153.203 1022.93 163.087 1022.93 172.652ZM1418.87 274.522V339.565H1509.74V274.522H1551.83V193.217H1509.74V0H1447.57L1295.96 193.217V274.522H1418.87ZM1429.39 193.217H1385.39L1429.39 135.826V193.217Z" fill="#E5E5E5"/>
</svg>
