<svg width="2263" height="1272" viewBox="0 0 2263 1272" fill="none" xmlns="http://www.w3.org/2000/svg">
<path fill-rule="evenodd" clip-rule="evenodd" d="M2263 0H0V1272H2263V0ZM729.913 785.565V720.522H607V639.217L758.609 446H820.783V639.217H862.87V720.522H820.783V785.565H729.913ZM696.435 639.217H740.435V581.826L696.435 639.217ZM1082.24 790.826C1056.73 790.826 1034.41 785.565 1015.28 775.043C996.151 764.203 980.05 750.493 966.977 733.913C954.224 717.015 944.499 698.362 937.803 677.957C931.427 657.551 928.238 637.783 928.238 618.652C928.238 598.246 931.745 577.841 938.76 557.435C946.093 536.71 956.296 518.217 969.369 501.957C982.76 485.377 998.861 471.986 1017.67 461.783C1036.8 451.58 1058.33 446.478 1082.24 446.478C1107.43 446.478 1129.59 452.058 1148.72 463.217C1168.17 474.058 1184.27 487.928 1197.02 504.826C1210.09 521.725 1219.82 540.377 1226.19 560.783C1232.89 580.87 1236.24 600.159 1236.24 618.652C1236.24 639.377 1232.57 660.101 1225.24 680.826C1218.22 701.232 1208.02 719.565 1194.63 735.826C1181.56 752.087 1165.46 765.319 1146.33 775.522C1127.51 785.725 1106.15 790.826 1082.24 790.826ZM1022.93 618.652C1022.93 629.174 1024.05 639.696 1026.28 650.217C1028.51 660.739 1032.02 670.304 1036.8 678.913C1041.59 687.522 1047.64 694.536 1054.98 699.957C1062.63 705.377 1071.72 708.087 1082.24 708.087C1093.08 708.087 1102.33 705.217 1109.98 699.478C1117.63 693.739 1123.69 686.406 1128.15 677.478C1132.93 668.551 1136.28 658.986 1138.19 648.783C1140.43 638.261 1141.54 628.217 1141.54 618.652C1141.54 608.13 1140.43 597.609 1138.19 587.087C1135.96 576.565 1132.46 567 1127.67 558.391C1122.89 549.783 1116.67 542.768 1109.02 537.348C1101.69 531.928 1092.76 529.217 1082.24 529.217C1071.08 529.217 1061.67 532.087 1054.02 537.826C1046.69 543.565 1040.63 550.899 1035.85 559.826C1031.38 568.754 1028.04 578.478 1025.8 589C1023.89 599.203 1022.93 609.087 1022.93 618.652ZM1418.87 720.522V785.565H1509.74V720.522H1551.83V639.217H1509.74V446H1447.57L1295.96 639.217V720.522H1418.87ZM1429.39 639.217H1385.39L1429.39 581.826V639.217Z" fill="#E5E5E5"/>
</svg>
