<svg width="79" height="30" viewBox="0 0 79 30" fill="none" xmlns="http://www.w3.org/2000/svg">
<path d="M14.7612 25.4168C9.25904 25.4168 4.9152 21.3524 4.9152 15.2558C4.9152 9.4495 8.67987 5.09479 14.7612 5.09479C17.3675 5.09479 19.9739 6.25604 21.7114 7.99793L25.1865 4.51416C22.5802 1.90133 18.8155 0.15945 14.7612 0.15945C6.07356 0.15945 -0.0078125 6.54636 -0.0078125 15.2558C-0.0078125 24.5458 6.65274 30.3521 14.7612 30.3521C18.8155 30.3521 22.5802 28.6102 25.1865 25.9974L21.7114 22.5136C19.9739 24.2555 17.3675 25.4168 14.7612 25.4168ZM30.1095 0.449771V30.0618H35.0325C42.2722 30.0618 52.1183 28.0296 52.1183 15.2558C52.1183 2.19165 41.9827 0.449771 35.0325 0.449771H30.1095ZM35.0325 25.1264V5.09479C35.0325 5.09479 47.1953 3.35291 47.1953 14.9655C47.4848 26.8683 35.0325 25.1264 35.0325 25.1264ZM68.0457 21.933C74.1271 21.933 79.0501 16.9977 79.0501 10.9011C79.0501 4.80447 74.1271 -0.130859 68.0457 -0.130859C61.9643 -0.130859 57.0413 4.80447 57.0413 10.9011C57.0413 16.9977 61.9643 21.933 68.0457 21.933ZM68.0457 4.80448C71.5208 4.80448 74.1271 7.4173 74.1271 10.9011C74.1271 14.3848 71.5208 16.9977 68.0457 16.9977C64.5706 16.9977 61.9643 14.3848 61.9643 10.9011C61.9643 7.70761 64.8602 4.80448 68.0457 4.80448ZM77.6021 25.1264H58.1997V30.0618H77.6021V25.1264Z" fill="#74D414"/>
</svg>
