<svg width="25" height="24" viewBox="0 0 25 24" fill="none" xmlns="http://www.w3.org/2000/svg">
<path fill-rule="evenodd" clip-rule="evenodd" d="M24.2493 12.0272C24.3188 5.51287 19.177 0.14389 12.7151 0.000717078C6.11417 -0.0708694 0.694483 5.22653 0.625 11.8125C0.625 18.3269 5.83624 23.5527 12.3677 23.6243C18.8296 23.6958 24.1798 18.5416 24.2493 12.0272ZM10.0213 5.36932H14.8537C17.0774 5.36932 18.8807 7.1726 18.8807 9.3963V14.2287C18.8807 16.4524 17.0774 18.2557 14.8537 18.2557H10.0213C7.7976 18.2557 5.99432 16.4524 5.99432 14.2287V9.3963C5.99432 7.1726 7.7976 5.36932 10.0213 5.36932Z" fill="#2B2C34"/>
<path d="M15.6591 11.8125C15.6591 13.5917 14.2167 15.0341 12.4375 15.0341C10.6583 15.0341 9.21591 13.5917 9.21591 11.8125C9.21591 10.0333 10.6583 8.59091 12.4375 8.59091C14.2167 8.59091 15.6591 10.0333 15.6591 11.8125Z" fill="#2B2C34"/>
<path d="M16.7329 8.05397C16.7329 8.35051 16.4926 8.59091 16.196 8.59091C15.8995 8.59091 15.6591 8.35051 15.6591 8.05397C15.6591 7.75743 15.8995 7.51704 16.196 7.51704C16.4926 7.51704 16.7329 7.75743 16.7329 8.05397Z" fill="#2B2C34"/>
</svg>
