<svg width="58" height="28" viewBox="0 0 58 28" fill="none" xmlns="http://www.w3.org/2000/svg">
<path fill-rule="evenodd" clip-rule="evenodd" d="M29.7743 24.2661C28.662 24.1955 27.3821 24.0013 26.3758 23.71C26.1904 23.657 25.4048 23.3657 25.2018 23.2774C21.6885 21.6532 19.2434 18.0958 19.2434 13.9823C19.2434 8.33291 23.8424 3.7251 29.4918 3.7251C35.0971 3.7251 39.6608 8.25347 39.7402 13.8323H43.4388C43.3594 6.20555 37.1362 0.0264806 29.4918 0.0264806C21.7945 0.0264806 15.5359 6.28499 15.5359 13.9823C15.5359 19.2875 18.5195 23.9042 22.889 26.261C23.6747 26.6759 24.8134 27.1084 25.1929 27.2232C26.4376 27.5939 27.9647 27.8411 29.3241 27.947C29.7831 27.9823 31.3985 28 31.8663 28H57.3682V24.3102H31.9281C31.5839 24.3014 30.1097 24.2837 29.7743 24.2661ZM31.9281 18.4754C31.6633 18.4754 30.2509 18.4666 29.9861 18.4489C29.5448 18.4136 28.9092 18.343 28.4943 18.2547C28.0265 18.1311 27.5939 17.9634 27.3997 17.8575C26.0227 17.116 25.087 15.6595 25.087 13.9823C25.087 11.546 27.0643 9.56872 29.5006 9.56872C31.8928 9.56872 33.826 11.4666 33.9054 13.8411H37.4628C37.3922 9.50694 33.8525 6.01135 29.5006 6.01135C25.0958 6.01135 21.5208 9.57755 21.5208 13.9823C21.5208 17.0895 23.3039 19.773 25.8903 21.0883C26.2875 21.3178 27.0378 21.5649 27.2497 21.6179C27.9823 21.8121 28.9622 21.9445 29.7654 21.9975C30.0567 22.024 31.5044 22.0328 31.8134 22.0328V22.0416H57.377V18.4842H31.9281V18.4754ZM13.2673 27.9735H9.54225V3.7251H4.09584V0H13.2762V27.9735H13.2673ZM0 5.58764V9.1715H4.09584V27.9735H7.6797V5.58764H0Z" fill="#FF0000"/>
</svg>
